<?xml version="1.0" encoding="UTF-8"?>
<!-- Generator: Adobe Illustrator 24.1.2, SVG Export Plug-In . SVG Version: 6.00 Build 0)  -->
<svg xmlns="http://www.w3.org/2000/svg" xmlns:xlink="http://www.w3.org/1999/xlink" version="1.1" id="OBJECTS" x="0px" y="0px" width="60px" height="60px" viewBox="0 0 60 60" style="enable-background:new 0 0 60 60;" xml:space="preserve">
<style type="text/css">
	.st0{fill:#014F9F;}
	.st1{fill:#013A6D;}
	.st2{fill:#FFDC00;}
</style>
<rect class="st0" width="60" height="60"></rect>
<path class="st1" d="M4.9,37.6L27.3,60C45,60,55.8,60,60,60c0-7.8,0-28.5,0-31.3c-0.8-0.8-5.4-5.5-5.4-5.5l-10.1,3.4l-4.2-4.2  L29.7,29l-6.6-6.6l-1.7,9.8l-10.1,2.3L4.9,37.6z"></path>
<g>
	<g transform="translate(-137.000000, -24.000000)">
		<g>
			<g transform="translate(137.000000, 24.000000)">
				<g>
					<g id="Group-22">
						<path id="Fill-16" class="st2" d="M17.4,31.2h-3l3.6-5.6h0.2L17.4,31.2z M13.5,25.1L4.9,37.6h5.3l1.8-2.7h4.9l-0.4,2.7h4.7        l2-15.2h-4.2C15.8,22.4,14.9,23,13.5,25.1z"></path>
						<path id="Fill-18" class="st2" d="M48.6,26.3H55c0.6-2.9,0-4.2-5.8-4.2c-6.1,0-7.7,1-10.3,7.4c-2,5-1.8,8.3,5.2,8.3        c6.4,0,7.5-2,10.1-8.5l0.5-1.4h-5.7c-1.9,0-2.3,0.2-3.1,2.2l-0.6,1.5H48c-0.7,1.9-1.2,2.2-2.9,2.2c-2.2,0-2.6-0.5-1.1-4.3        C45.3,26.4,46,26.3,48.6,26.3"></path>
						<path id="Fill-20" class="st2" d="M39,25.6l1.3-3.2H28.9c-2.8,0-3.3,0.3-4.4,3.1L24,26.6h5.3l-4.5,11h5.2l4.5-11h2.6        C38.4,26.6,38.7,26.3,39,25.6"></path>
					</g>
				</g>
			</g>
		</g>
	</g>
</g>
</svg>
